<svg xmlns="http://www.w3.org/2000/svg" width="138" height="38" fill="none"><path fill="#9C9C9C" d="M11.231 22.737v5.086c0 2.543-1.104 3.46-2.858 3.46-1.755 0-2.858-.917-2.858-3.46V8.596c0-2.543 1.104-3.51 2.859-3.51 1.754 0 2.857.967 2.857 3.51v3.815h5.215V8.952C16.446 3.255 13.637 0 8.223 0 2.807 0 0 3.255 0 8.952v18.515c0 5.697 2.807 8.953 8.223 8.953 5.414 0 8.223-3.256 8.223-8.953v-4.73H11.23ZM32.04.407l5.615 35.606H32.09l-.953-6.46h-6.768l-.953 6.46H18.35L23.967.407h8.072Zm-4.362 6.307L25.07 24.721h5.314L27.777 6.713h-.1v.001Zm29.682 29.299h-5.616c-.3-.916-.502-1.476-.502-4.375v-5.595c0-3.306-1.103-4.527-3.61-4.527h-1.905v14.497h-5.515V.407h8.324c5.715 0 8.171 2.696 8.171 8.19v2.797c0 3.662-1.153 6.002-3.61 7.172 2.759 1.271 3.66 3.916 3.66 7.63v5.493c0 1.73.05 3.001.602 4.324Zm-8.975-30.52h-2.658V16.43h2.156c2.056 0 3.31-.915 3.31-3.764v-3.51c0-2.543-.853-3.662-2.808-3.662v-.001ZM74.167.407l5.616 35.606h-5.566l-.952-6.46h-6.769l-.952 6.46H60.48L66.094.407h8.073Zm-4.362 6.307-2.607 18.007h5.315L69.906 6.713h-.1v.001ZM84.885.407h-5.566l5.415 35.606h8.223L98.37.407h-5.063L89.146 29.45h-.1L84.885.407Zm26.711 0 5.615 35.606h-5.565l-.952-6.46h-6.769l-.953 6.46h-5.064L103.524.407h8.072Zm-4.362 6.307-2.607 18.007h5.315l-2.608-18.008h-.1v.001Zm25.1 29.299H138V.407h-4.914v21.312h-.1L127.42.407h-6.918v35.606h4.964v-25.79h.099l6.769 25.79Z"/></svg>