<svg xmlns="http://www.w3.org/2000/svg" width="156" height="38" fill="none"><g clip-path="url(#a)"><path fill="#9C9C9C" d="M2.557 30.072c-.773 0-1.398-.252-1.878-.756C.226 28.812 0 28.154 0 27.342V2.772C0 1.96.213 1.33.64.882 1.091.434 1.704.21 2.476.21H16.5c1.625 0 2.437.728 2.437 2.184 0 1.428-.813 2.142-2.437 2.142H5.074V12.6H15.7c1.625 0 2.437.728 2.437 2.184 0 1.428-.813 2.142-2.437 2.142H5.074v10.416c0 .812-.227 1.47-.68 1.974-.452.504-1.065.756-1.837.756Zm23.709 0c-.72 0-1.318-.21-1.798-.63-.453-.448-.679-1.078-.679-1.89V2.478c0-.812.226-1.428.68-1.848.479-.42 1.078-.63 1.797-.63.72 0 1.318.21 1.798.63.48.42.719 1.036.719 1.848v25.074c0 .812-.24 1.442-.72 1.89-.479.42-1.078.63-1.797.63Zm23.128-5.88c.453 0 .812.182 1.079.546.293.364.44.854.44 1.47 0 .868-.494 1.596-1.48 2.184-.905.532-1.93.966-3.075 1.302-1.146.308-2.238.462-3.276.462-3.143 0-5.633-.952-7.471-2.856s-2.757-4.508-2.757-7.812c0-2.1.4-3.962 1.199-5.586s1.917-2.884 3.356-3.78c1.465-.896 3.116-1.344 4.954-1.344 1.757 0 3.289.406 4.594 1.218 1.305.812 2.317 1.96 3.036 3.444.72 1.484 1.079 3.234 1.079 5.25 0 1.204-.506 1.806-1.518 1.806H37.768c.16 1.932.68 3.36 1.558 4.284.88.896 2.158 1.344 3.836 1.344.852 0 1.598-.112 2.237-.336a20.644 20.644 0 0 0 2.237-.924c.8-.448 1.385-.672 1.758-.672Zm-6.913-11.718c-1.358 0-2.45.448-3.276 1.344-.799.896-1.278 2.184-1.438 3.864h9.03c-.054-1.708-.454-2.996-1.2-3.864-.745-.896-1.784-1.344-3.116-1.344Zm29.225 13.482c.48.504.719 1.078.719 1.722 0 .616-.227 1.176-.68 1.68-.452.476-.985.714-1.597.714-.666 0-1.239-.294-1.718-.882l-5.633-6.552-5.633 6.552c-.507.56-1.08.84-1.718.84-.586 0-1.106-.238-1.558-.714-.453-.476-.68-1.022-.68-1.638 0-.644.24-1.218.72-1.722l5.832-6.678-5.513-6.3c-.48-.504-.719-1.078-.719-1.722 0-.644.226-1.19.68-1.638.452-.476.971-.714 1.557-.714.64 0 1.212.28 1.718.84l5.314 6.132 5.313-6.132c.506-.56 1.079-.84 1.718-.84.613 0 1.132.238 1.558.714.453.448.68.994.68 1.638 0 .644-.24 1.218-.72 1.722l-5.513 6.3 5.873 6.678Zm22.102-11.424c1.625.476 2.877 1.344 3.756 2.604.905 1.26 1.358 2.8 1.358 4.62 0 2.52-.865 4.494-2.597 5.922-1.704 1.428-4.062 2.142-7.071 2.142H78.946c-.772 0-1.385-.224-1.837-.672-.426-.448-.64-1.078-.64-1.89V2.772c0-.812.214-1.442.64-1.89.453-.448 1.065-.672 1.838-.672h9.906c2.93 0 5.22.686 6.872 2.058 1.678 1.344 2.517 3.234 2.517 5.67 0 1.568-.4 2.926-1.199 4.074-.772 1.148-1.85 1.988-3.236 2.52h.001Zm-12.305-1.848h6.512c3.543 0 5.314-1.386 5.314-4.158 0-1.4-.44-2.436-1.319-3.108-.878-.672-2.21-1.008-3.995-1.008h-6.512v8.274Zm7.192 12.936c1.864 0 3.222-.35 4.075-1.05.852-.7 1.278-1.792 1.278-3.276 0-1.484-.44-2.59-1.318-3.318-.853-.728-2.198-1.092-4.035-1.092h-7.192v8.736h7.192Zm17.083 4.452c-.719 0-1.318-.21-1.797-.63-.453-.448-.68-1.078-.68-1.89V2.478c0-.812.227-1.428.68-1.848.479-.42 1.078-.63 1.797-.63.72 0 1.319.21 1.798.63.48.42.719 1.036.719 1.848v25.074c0 .812-.239 1.442-.719 1.89-.479.42-1.078.63-1.798.63Zm16.576.084c-1.997 0-3.755-.434-5.273-1.302-1.492-.868-2.65-2.114-3.476-3.738-.826-1.624-1.238-3.514-1.238-5.67s.412-4.032 1.238-5.628c.826-1.624 1.984-2.87 3.476-3.738 1.518-.868 3.276-1.302 5.273-1.302 1.998 0 3.743.434 5.234 1.302a8.536 8.536 0 0 1 3.476 3.738c.825 1.596 1.238 3.472 1.238 5.628s-.413 4.046-1.238 5.67a8.536 8.536 0 0 1-3.476 3.738c-1.491.868-3.236 1.302-5.234 1.302Zm-.04-4.074c1.625 0 2.864-.56 3.716-1.68.852-1.12 1.278-2.772 1.278-4.956 0-2.156-.426-3.794-1.278-4.914-.852-1.148-2.078-1.722-3.676-1.722-1.598 0-2.836.574-3.715 1.722-.852 1.12-1.278 2.758-1.278 4.914 0 2.184.426 3.836 1.278 4.956.852 1.12 2.077 1.68 3.675 1.68Zm30.651-17.22c.745 0 1.345.224 1.797.672.453.448.68 1.05.68 1.806v16.59c0 3.22-.853 5.656-2.557 7.308-1.705 1.652-4.222 2.478-7.551 2.478-2.903 0-5.327-.574-7.271-1.722-.986-.616-1.478-1.358-1.478-2.226 0-.616.133-1.106.399-1.47.293-.364.666-.546 1.119-.546.24 0 .532.056.879.168.346.14.706.294 1.078.462.959.42 1.812.742 2.557.966.773.224 1.652.336 2.637.336 3.489 0 5.234-1.792 5.234-5.376V25.62a6.398 6.398 0 0 1-2.557 2.688c-1.119.616-2.397.924-3.836.924-1.704 0-3.222-.42-4.554-1.26-1.305-.868-2.33-2.072-3.076-3.612s-1.119-3.318-1.119-5.334c0-2.016.36-3.794 1.079-5.334.746-1.568 1.784-2.772 3.116-3.612 1.332-.868 2.85-1.302 4.554-1.302 1.439 0 2.717.322 3.836.966a6.138 6.138 0 0 1 2.557 2.646v-1.092c0-.728.226-1.316.679-1.764.453-.448 1.052-.672 1.798-.672Zm-7.551 16.296c1.598 0 2.836-.546 3.715-1.638.906-1.092 1.359-2.59 1.359-4.494 0-1.932-.453-3.444-1.359-4.536-.879-1.092-2.117-1.638-3.715-1.638-1.572 0-2.81.546-3.716 1.638-.905 1.092-1.358 2.604-1.358 4.536 0 1.904.453 3.402 1.358 4.494.906 1.092 2.144 1.638 3.716 1.638Z"/></g><defs><clipPath id="a"><path fill="#fff" d="M0 0h156v38H0z"/></clipPath></defs></svg>