<svg xmlns="http://www.w3.org/2000/svg" width="137" height="50" fill="none"><g clip-path="url(#a)"><path fill="#9C9C9C" d="m24.554 10.784-4.536 28.298H13.5l1.656-10.218h-7.02L6.515 39.082H0l4.572-28.298h6.48L9.11 22.732h7.02l1.945-11.948h6.48Zm13.365 28.298.217-6.17h-6.012l-1.764 6.17h-6.877l9.253-28.298h11.88l.145 28.298h-6.842Zm-1.475-21.42L33.6 27.645h4.717l.395-9.982h-2.268v-.001Zm36.277-6.878-4.536 28.298h-6.517l-4.535-15.484-2.448 15.485h-6.518l4.572-28.299h6.696L63.9 25.248l2.339-14.464h6.482Zm15.203 0c3.144 0 5.389.865 6.732 2.594.985 1.31 1.476 2.948 1.476 4.913 0 .708-.06 1.454-.179 2.24l-1.404 8.765c-.48 2.96-1.657 5.332-3.529 7.114-1.872 1.782-4.296 2.672-7.274 2.672H73.27l4.574-28.298h10.08Zm-2.269 6.132h-2.34L80.76 32.95h3.42c1.128 0 2.004-.328 2.628-.982.648-.682 1.092-1.782 1.33-3.301l1.046-6.446c.09-.52.139-1.046.144-1.573 0-2.49-1.223-3.733-3.672-3.733v.001Zm29.772 22.166H97.354l4.574-28.298h18.073l-1.008 6.132H107.4l-.828 5.306h9.576l-1.007 6.13h-9.577l-.72 4.599h11.593l-1.009 6.131h-.001Zm20.565 0h-16.418l4.574-28.298h6.48l-3.564 22.167H137l-1.008 6.131Zm-63.578 5.036h62.629L133.086 50H70.457l1.957-5.882ZM6.85 0h68.5l-1.957 5.882h-68.5L6.85 0Z"/></g><defs><clipPath id="a"><path fill="#fff" d="M0 0h137v50H0z"/></clipPath></defs></svg>