<svg xmlns="http://www.w3.org/2000/svg" width="198" height="41" fill="none"><g clip-path="url(#a)"><path fill="#9C9C9C" fill-rule="evenodd" d="M13.323 36.123a.795.795 0 0 1-.364-.092.838.838 0 0 1-.288-.252 2.497 2.497 0 0 1-.429-1.029 14.621 14.621 0 0 1-.238-1.44c-.066-.623-.1-1.25-.1-1.877-.02-1.378-.016-2.756.013-4.134.017-.846.024-1.506.024-1.982V9.565c0-.776.005-1.366.014-1.771.008-.405.038-.863.086-1.374a6.12 6.12 0 0 1 .19-1.123c.095-.283.222-.553.376-.806.143-.265.35-.484.602-.634.294-.154.595-.29.904-.41.397-.155.81-.266 1.229-.33a34.526 34.526 0 0 1 1.645-.212V1.45L16.558 1H1.402L1 1.45v1.242c2.544.159 3.966.917 4.267 2.273.175 1.145.258 2.303.25 3.462v24.127a25.442 25.442 0 0 1-.15 3.753c-.07.194-.172.372-.301.528a9.7 9.7 0 0 1-.614.7c-.17.173-.334.354-.49.542v.925c12.934 0 20.94.088 24.017.265l1.08-3.832-.677-.503a143.53 143.53 0 0 1-15.058 1.19h-.001v.001Zm24.041-11.046a.658.658 0 0 1-.15.026c-.25 0-.376-.096-.376-.29.001-.876.064-1.751.188-2.617.141-.944.377-1.87.703-2.761a10.68 10.68 0 0 1 1.282-2.537 6.105 6.105 0 0 1 2.154-1.874 5.786 5.786 0 0 1 2.728-.65 3.78 3.78 0 0 1 1.973.427c.612.32 1.134.801 1.514 1.397a7.52 7.52 0 0 1 1.18 4.175 1.385 1.385 0 0 1-.235.76c-.15.221-.362.39-.606.482a39.628 39.628 0 0 1-4.203 1.507 272.82 272.82 0 0 0-5.997 1.93.674.674 0 0 0-.155.025Zm14.908 8.245c-3.013 1.92-5.615 2.88-7.804 2.88a6.89 6.89 0 0 1-4.167-1.295 7.748 7.748 0 0 1-2.623-3.237 10.427 10.427 0 0 1-.84-4.188c10.942-3.576 16.463-5.365 16.563-5.365a1.845 1.845 0 0 0 1.095-.716c.271-.368.408-.827.386-1.292a7.848 7.848 0 0 0-.84-3.726 6.316 6.316 0 0 0-2.272-2.471 10.697 10.697 0 0 0-3.1-1.295 15.1 15.1 0 0 0-3.603-.41c-2.174-.035-4.33.42-6.322 1.335a12.194 12.194 0 0 0-4.53 3.568 16.484 16.484 0 0 0-2.622 5.021 18.783 18.783 0 0 0-.904 5.827c0 4.07 1.047 7.118 3.137 9.144 1.89 1.85 4.56 2.774 8.006 2.774a12.42 12.42 0 0 0 5.685-1.453 43.507 43.507 0 0 0 6.085-3.86l-.549-1.028-.78-.213h-.002ZM86.073 5.457c-.672-1.845-1.993-3.35-3.69-4.202a14.919 14.919 0 0 0-6.65-1.268c-1.662-.01-3.32.203-4.93.634-1.5.4-2.93 1.043-4.242 1.903a8.996 8.996 0 0 0-3.05 3.45 10.73 10.73 0 0 0-1.13 5.007c0 1.247.288 2.476.841 3.58a9.964 9.964 0 0 0 2.109 2.895c.93.863 1.92 1.653 2.96 2.365a34.182 34.182 0 0 0 3.239 2.008 55.488 55.488 0 0 1 3.087 1.798 13.894 13.894 0 0 1 2.346 1.757c1.857 1.815 2.786 3.541 2.786 5.18a6.648 6.648 0 0 1-.51 2.529 6.378 6.378 0 0 1-1.423 2.108 6.346 6.346 0 0 1-2.122 1.514 6.083 6.083 0 0 1-2.52.508 6.353 6.353 0 0 1-2.934-.622 6.677 6.677 0 0 1-2.374-1.915c-1.332-1.602-2.06-3.662-2.045-5.789l-.977-.37-4.994 5.893a11.873 11.873 0 0 0 4.493 4.057 12.658 12.658 0 0 0 5.897 1.415 17.837 17.837 0 0 0 5.496-.9 19.84 19.84 0 0 0 5.07-2.445 12.58 12.58 0 0 0 3.726-3.91 9.506 9.506 0 0 0 1.443-5.035 8.162 8.162 0 0 0-.476-2.814 9.142 9.142 0 0 0-1.23-2.326 11.236 11.236 0 0 0-2.096-2.074 26.754 26.754 0 0 0-2.673-1.865 90.526 90.526 0 0 0-3.362-1.916c-.79-.402-1.569-.83-2.334-1.282a27.776 27.776 0 0 1-2.111-1.434c-.7-.504-1.34-1.095-1.906-1.76a8.23 8.23 0 0 1-1.205-2.062 6.552 6.552 0 0 1-.502-2.55 5.608 5.608 0 0 1 .358-2.099 5.4 5.4 0 0 1 1.108-1.786 5.154 5.154 0 0 1 1.78-1.22 4.948 4.948 0 0 1 2.097-.365 5.76 5.76 0 0 1 2.588.487c.818.36 1.55.907 2.143 1.6A9.469 9.469 0 0 1 80.3 9.184l.879.29 4.894-4.017Zm24.406 10.135a5.216 5.216 0 0 0-1.882-1.982 8.806 8.806 0 0 0-2.485-1.017 12.145 12.145 0 0 0-2.848-.317 14.23 14.23 0 0 0-5.358.965 11.562 11.562 0 0 0-3.965 2.55 13.82 13.82 0 0 0-2.61 3.738 18.36 18.36 0 0 0-1.494 4.427 24.218 24.218 0 0 0-.45 4.73c-.007 1.35.175 2.694.538 3.988.352 1.253.9 2.436 1.618 3.502a7.56 7.56 0 0 0 2.95 2.537c1.35.648 2.82.969 4.304.938 4.701 0 9.118-2.176 13.251-6.527l-.502-.767-.627-.158c-3.062 2.484-5.89 3.726-8.483 3.726a5.762 5.762 0 0 1-2.798-.674 5.717 5.717 0 0 1-1.998-1.743 10.77 10.77 0 0 1-1.268-2.458c-.33-.873-.569-1.781-.715-2.708-.133-.874-.2-1.758-.2-2.643.005-1.125.098-2.247.276-3.356.197-1.235.49-2.45.878-3.634a7.662 7.662 0 0 1 1.782-3.066c.36-.384.79-.688 1.265-.894a3.688 3.688 0 0 1 1.496-.308 3.547 3.547 0 0 1 1.971.468c.603.345 1.102.86 1.441 1.488a9.656 9.656 0 0 1 1.105 4.81l.878.37 4.744-2.959a6.958 6.958 0 0 0-.814-3.026Zm9.198 7.862c.128-1.038.351-2.06.666-3.052a11.65 11.65 0 0 1 1.216-2.735 5.951 5.951 0 0 1 1.946-1.916 5.158 5.158 0 0 1 2.773-.753 5.335 5.335 0 0 1 2.998.832 5.415 5.415 0 0 1 1.945 2.273c.454.967.783 1.993.978 3.052.206 1.14.308 2.3.302 3.462 0 1.057-.009 1.938-.026 2.642a34.154 34.154 0 0 1-.175 2.538c-.075.83-.213 1.651-.414 2.457-.197.71-.454 1.4-.766 2.062a5.159 5.159 0 0 1-1.217 1.717 5.963 5.963 0 0 1-1.782 1.057 6.61 6.61 0 0 1-2.447.423 4.304 4.304 0 0 1-2.573-.82 5.942 5.942 0 0 1-1.793-2.021 12.857 12.857 0 0 1-1.08-2.761 19.194 19.194 0 0 1-.577-2.895 22.865 22.865 0 0 1-.151-2.55c0-1.007.059-2.013.177-3.012Zm-3.112 13.663c1.823 1.744 4.718 2.616 8.684 2.616a17.21 17.21 0 0 0 4.354-.529c1.341-.35 2.62-.926 3.787-1.704a11.446 11.446 0 0 0 3.024-2.947 14.077 14.077 0 0 0 1.983-4.387c.506-1.91.751-3.884.728-5.866a11.502 11.502 0 0 0-.827-4.653 11.024 11.024 0 0 0-2.611-3.857c-2.093-1.972-5.129-2.959-9.11-2.959-3.982 0-7.262 1.295-9.838 3.885a13.01 13.01 0 0 0-2.93 4.468 13.551 13.551 0 0 0-.935 5.336c0 4.722 1.229 8.254 3.689 10.597h.002Zm39.275-20.93c1.338 0 2.292.282 2.861.846.531.68.866 1.506.966 2.38.21 1.03.34 2.078.389 3.131.033.925.05 2.119.05 3.581a470.051 470.051 0 0 1-.037 5.695c-.008.572-.005 1.246.012 2.022.004.578.038 1.156.101 1.73.05.38.117.794.2 1.242.058.376.177.737.352 1.07.15.265.335.506.55.715a3.777 3.777 0 0 0 2.759 1.056c1.256 0 2.694-.67 4.317-2.008a48.133 48.133 0 0 0 3.865-3.78l-.577-.9h-.602a5.955 5.955 0 0 1-3.438 1.401 1.878 1.878 0 0 1-.782-.12 1.952 1.952 0 0 1-.674-.435 2.026 2.026 0 0 1-.44-.514 3.985 3.985 0 0 1-.263-1.084 16.02 16.02 0 0 1-.125-2.286c0-.581.029-1.52.087-2.814.047-.92.077-1.84.089-2.762v-1.586c.016-1.709.012-2.893-.012-3.555a26.454 26.454 0 0 0-.29-2.695 5.06 5.06 0 0 0-.778-2.352 5.257 5.257 0 0 0-1.556-1.215 5.237 5.237 0 0 0-2.56-.569c-2.944 0-6.358 1.269-10.239 3.806l-.602-.238a5.192 5.192 0 0 0-.865-2.708c-.494-.68-1.344-1.018-2.548-1.018a6.561 6.561 0 0 0-2.121.383 10.06 10.06 0 0 0-2.26 1.136c-.761.503-1.422.97-1.982 1.401-.561.431-1.209.955-1.945 1.572l.928 1.295c.171-.116.342-.23.515-.343.292-.194.547-.352.765-.476.217-.123.477-.268.778-.436a5.16 5.16 0 0 1 .842-.386c.221-.08.454-.125.689-.132.29-.007.577.07.828.225.255.177.447.437.55.74.126.32.234.645.326.977.102.447.161.903.176 1.362.034.6.054 1.084.061 1.453.007.369.011.924.012 1.665v.45c0 1.726-.126 7.011-.376 15.855l.627.37 5.647-1.718c-.167-.757-.293-3.144-.377-7.16a551.36 551.36 0 0 1-.122-11.787c2.911-1.656 4.986-2.484 6.224-2.484l.005.002Zm24.343 9.01a.63.63 0 0 1-.15.028c-.25 0-.376-.097-.377-.29a18.46 18.46 0 0 1 .189-2.617c.141-.944.376-1.87.702-2.762.315-.903.745-1.757 1.28-2.537a6.1 6.1 0 0 1 2.154-1.874 5.786 5.786 0 0 1 2.728-.65 3.775 3.775 0 0 1 1.973.427c.612.32 1.134.801 1.515 1.397a7.511 7.511 0 0 1 1.179 4.175 1.391 1.391 0 0 1-.236.759c-.15.221-.361.39-.604.483a39.91 39.91 0 0 1-4.203 1.507c-2.006.62-4.006 1.263-5.998 1.93a.713.713 0 0 0-.151.025h-.001v-.001Zm14.907 8.246c-3.012 1.921-5.614 2.881-7.804 2.88a6.9 6.9 0 0 1-4.167-1.294 7.755 7.755 0 0 1-2.622-3.237 10.431 10.431 0 0 1-.841-4.19c10.942-3.575 16.463-5.363 16.564-5.363a1.848 1.848 0 0 0 1.095-.716c.271-.369.408-.828.386-1.293a7.856 7.856 0 0 0-.841-3.726 6.312 6.312 0 0 0-2.271-2.471 10.717 10.717 0 0 0-3.1-1.295 15.092 15.092 0 0 0-3.604-.41 14.56 14.56 0 0 0-6.32 1.335 12.197 12.197 0 0 0-4.53 3.568 16.452 16.452 0 0 0-2.622 5.021 18.756 18.756 0 0 0-.904 5.827c0 4.07 1.046 7.117 3.137 9.144 1.891 1.85 4.559 2.774 8.006 2.774a12.426 12.426 0 0 0 5.685-1.453 43.643 43.643 0 0 0 6.085-3.859l-.549-1.029-.783-.213Z" clip-rule="evenodd"/></g><defs><clipPath id="a"><path fill="#fff" d="M0 0h198v41H0z"/></clipPath></defs></svg>