<svg xmlns="http://www.w3.org/2000/svg" width="145" height="36" fill="none"><g clip-path="url(#a)"><path fill="#9C9C9C" d="M47.638 35.52V0h-8.794L20.457 27.408l-3.104-3.984c5.55-.864 8.653-5.856 8.653-11.184 0-5.088-2.728-9.36-6.396-10.992C17.776.432 15.05 0 11.428 0H0v35.52h8.512V24.048h.094l8.042 11.472h8.982l3.056-5.136H38.75v5.136h8.888ZM8.512 17.856V7.968h3.386c3.339 0 5.596 1.728 5.596 4.8 0 3.264-2.116 5.088-5.643 5.088H8.51Zm30.238 5.328H32.92l5.737-9.84h.094v9.84ZM83.306 35.52V0h-8.511l.376 22.464L61.627 0h-7.665v35.52h8.511l-.235-21.696L75.594 35.52h7.712Zm25.667 0v-7.968H98.157v-6.096h10.487v-7.968H98.157v-5.52h10.816V0H89.645v35.52h19.328Zm35.331 0L132.03 17.712 143.552 0h-9.311l-9.829 15.984h-.094V0h-8.888v35.52h8.888V20.16h.094l9.499 15.36h10.393Z"/></g><defs><clipPath id="a"><path fill="#fff" d="M0 0h145v36H0z"/></clipPath></defs></svg>