<svg xmlns="http://www.w3.org/2000/svg" width="190" height="49" fill="none"><g fill="#9C9C9C" clip-path="url(#a)"><path d="M51.662 44.014c-3.154 0-5.572-.568-7.254-1.704-1.653-1.168-2.479-2.873-2.479-5.114 0-1.136.361-2.068 1.081-2.794.752-.757 1.713-1.136 2.885-1.136.69.032 1.215.22 1.576.568.362.316.542.616.542.9 0 .031-.151.142-.451.331-.3.19-.57.474-.812.852-.24.38-.36.9-.36 1.563 0 1.484.421 2.636 1.262 3.457.871.789 2.208 1.183 4.01 1.183 1.232 0 2.313-.252 3.245-.757.931-.505 1.637-1.168 2.118-1.989.51-.852.765-1.736.765-2.652 0-1.136-.315-2.114-.946-2.935a7.532 7.532 0 0 0-2.252-2.036c-.903-.568-2.134-1.216-3.696-1.942-1.802-.852-3.258-1.625-4.37-2.32a9.604 9.604 0 0 1-2.84-2.746c-.78-1.168-1.17-2.604-1.17-4.309 0-2.746.885-4.798 2.657-6.155 1.803-1.358 4.161-2.036 7.075-2.036 2.283 0 4.266.505 5.948 1.515 1.713 1.01 2.569 2.494 2.569 4.45 0 1.137-.376 2.084-1.127 2.842-.72.726-1.667 1.089-2.838 1.089-.692-.032-1.217-.206-1.578-.521-.36-.347-.541-.663-.541-.947 0-.032.196-.142.586-.332.421-.189.781-.473 1.081-.852.33-.379.496-.9.496-1.562 0-1.168-.435-2.084-1.306-2.747-.842-.663-1.923-.994-3.245-.994-1.832 0-3.23.458-4.19 1.373-.932.884-1.397 1.989-1.397 3.315 0 1.104.285 2.036.856 2.793.57.726 1.486 1.452 2.748 2.178a56.975 56.975 0 0 0 3.335 1.705c1.922.915 3.44 1.752 4.551 2.51a9.39 9.39 0 0 1 2.839 2.983c.78 1.23 1.172 2.762 1.172 4.592 0 1.579-.48 3.015-1.442 4.31-.931 1.262-2.209 2.256-3.83 2.982-1.593.726-3.35 1.09-5.273 1.09v-.001Zm22.812-.378c-2.042 0-3.665-.648-4.867-1.942-1.201-1.294-1.802-2.999-1.802-5.114v-8.76c0-.82-.03-1.42-.09-1.799-.03-.378-.21-.71-.541-.994-.33-.284-.886-.426-1.667-.426-.36 0-.63-.047-.811-.142-.18-.126-.27-.395-.27-.805 0-.19.06-.363.18-.52.12-.19.3-.3.541-.332 1.893-.285 3.515-.695 4.866-1.232.42-.157.766-.252 1.036-.284h.135c.481 0 .722.3.722.9v14.347c0 1.452.435 2.573 1.307 3.362a4.464 4.464 0 0 0 3.019 1.136c1.412 0 2.612-.363 3.604-1.089s1.653-1.452 1.983-2.178v-9.943c0-.821-.03-1.42-.09-1.8-.03-.378-.21-.71-.541-.994-.33-.284-.886-.426-1.667-.426-.361 0-.631-.047-.81-.142-.181-.126-.271-.395-.271-.805 0-.19.06-.363.18-.52.12-.19.3-.3.54-.332 1.893-.285 3.516-.695 4.868-1.232.42-.157.765-.252 1.035-.284h.136c.48 0 .72.3.72.9V38.57c0 1.863 1.187 2.794 3.56 2.794.51 0 .766.3.766.9 0 .441-.255.71-.766.804l-7.255.521c-.21 0-.33-.079-.36-.236-.03-.127-.045-.363-.045-.71V39.99h-.09a55.536 55.536 0 0 1-2.118 1.988c-.54.442-1.246.821-2.119 1.137-.84.347-1.846.52-3.018.52v.001Zm18.236-.426a.656.656 0 0 1-.302-.076.694.694 0 0 1-.239-.209c-.12-.189-.18-.41-.18-.662.03-.41.12-.648.27-.71.151-.095.421-.143.811-.143.781 0 1.337-.142 1.668-.426.33-.284.51-.616.54-.994.061-.38.09-.979.09-1.8V27.347c0-.82-.029-1.42-.09-1.8-.03-.378-.21-.71-.54-.993-.33-.284-.887-.427-1.668-.427-.36 0-.63-.047-.81-.142-.18-.126-.27-.394-.27-.805 0-.189.06-.363.18-.52.12-.19.3-.3.54-.332 1.953-.316 3.56-.726 4.822-1.231.51-.158.856-.253 1.036-.284h.135c.48 0 .721.3.721.9v2.935h.135c1.052-1.105 2.119-1.973 3.2-2.604 1.082-.663 2.057-.994 2.928-.994.992 0 1.773.394 2.344 1.183.601.758.901 1.642.901 2.652a3.89 3.89 0 0 1-.766 2.367c-.511.695-1.217 1.042-2.118 1.042-.392.007-.78-.09-1.126-.284-.3-.19-.466-.347-.496-.473.03-.063.18-.253.45-.569a1.87 1.87 0 0 0 .406-1.183c0-.569-.15-1.026-.45-1.373-.271-.348-.646-.521-1.127-.521-.51 0-1.156.268-1.937.805-.782.505-1.548 1.152-2.298 1.941V38.19c0 .821.03 1.42.09 1.8.06.378.255.71.585.994.331.284.887.426 1.667.426h.271c.241 0 .42.048.541.142.119.095.194.332.225.71 0 .253-.06.474-.181.663a.595.595 0 0 1-.54.285 87.855 87.855 0 0 0-4.731-.143c-1.352 0-2.914.048-4.687.142v.001Zm69.984.426c-2.042 0-3.86-.506-5.452-1.516a11.057 11.057 0 0 1-3.74-4.072 11.704 11.704 0 0 1-1.306-5.398c0-2.367.525-4.419 1.577-6.155 1.051-1.768 2.388-3.11 4.01-4.025 1.622-.947 3.259-1.42 4.911-1.42 2.044 0 3.861.52 5.453 1.562a10.256 10.256 0 0 1 3.695 4.072 11.122 11.122 0 0 1 1.352 5.35c0 2.368-.541 4.436-1.622 6.204-1.052 1.736-2.388 3.077-4.011 4.024-1.622.916-3.244 1.374-4.867 1.374Zm0-1.752c2.044 0 3.53-.916 4.461-2.747.962-1.83 1.442-4.198 1.442-7.102 0-2.715-.495-4.924-1.486-6.63-.962-1.735-2.434-2.603-4.417-2.603-2.072 0-3.574.9-4.506 2.699-.931 1.799-1.396 4.15-1.396 7.055 0 2.714.48 4.956 1.442 6.723.961 1.737 2.448 2.605 4.46 2.605Zm21.854 1.988c-1.473 0-2.734-.568-3.786-1.704-1.05-1.137-1.577-2.762-1.577-4.877V23.37l-2.613.095a.56.56 0 0 1-.451-.237 1.122 1.122 0 0 1-.18-.616c0-.284.046-.52.135-.71.121-.221.286-.347.496-.379 1.051-.22 1.863-.568 2.434-1.041.6-.506 1.036-1.042 1.306-1.61.271-.6.601-1.5.992-2.7.15-.41.48-.615.991-.615.21 0 .42.063.63.19.21.094.316.252.316.473l-.316 5.398 5.273-.332h.09c.391 0 .585.3.585.9 0 .347-.06.679-.18.994-.09.285-.21.427-.36.427l-5.047-.142v14.394c0 1.042.195 1.91.586 2.604.42.695 1.096 1.042 2.028 1.042.931 0 1.757-.174 2.477-.521.392-.158.631-.237.721-.237.211 0 .377.095.496.284.121.158.241.38.361.663a.565.565 0 0 1 .045.237c0 .126-.09.268-.271.426-.871.6-1.696.995-2.477 1.184-.752.22-1.653.331-2.704.331Zm-72.831-.947c.12.19.3.284.541.284 1.56-.09 3.123-.138 4.686-.142 2.013 0 3.89.048 5.633.142a.541.541 0 0 0 .283-.073.576.576 0 0 0 .213-.211c.119-.19.179-.41.179-.663-.029-.378-.104-.615-.225-.71-.09-.094-.27-.142-.541-.142h-.27c-.991 0-1.697-.079-2.118-.237a1.382 1.382 0 0 1-.856-.852c-.15-.442-.225-1.152-.225-2.13V23.463h4.777a.654.654 0 0 0 .301-.076.687.687 0 0 0 .239-.208c.15-.189.225-.41.225-.663-.03-.378-.12-.615-.271-.71-.119-.126-.315-.19-.585-.19h-4.686v-2.84c0-1.515.06-2.841.179-3.978a7.955 7.955 0 0 1 1.037-3.22c.571-.978 1.457-1.467 2.659-1.467.138 0 .272.008.401.025a8.406 8.406 0 0 1 .099-1.585 7.316 7.316 0 0 0-.185-.003c-2.643.063-4.701 1.12-6.173 3.173-1.442 2.02-2.163 4.656-2.163 7.907v1.989h-2.704c-.39 0-.661.047-.811.142-.15.063-.24.316-.27.757 0 .253.06.474.18.663.151.19.346.285.586.285h3.019V38.19c0 .853-.03 1.468-.09 1.847-.03.347-.21.663-.541.947-.33.284-.886.426-1.667.426-.39 0-.661.048-.811.142-.12.063-.195.3-.225.71 0 .253.059.474.18.663Z"/><path fill-rule="evenodd" d="M135.804 9.865c0 .691-.13 1.376-.382 2.014a5.291 5.291 0 0 1-1.086 1.707 4.994 4.994 0 0 1-1.624 1.14c-.607.264-1.257.4-1.914.399a4.879 4.879 0 0 1-3.538-1.539 5.411 5.411 0 0 1-1.469-3.721 5.516 5.516 0 0 1 .383-2.015 5.29 5.29 0 0 1 1.085-1.707 4.997 4.997 0 0 1 1.624-1.14 4.787 4.787 0 0 1 3.83-.001 4.996 4.996 0 0 1 1.624 1.14 5.274 5.274 0 0 1 1.085 1.708c.252.639.382 1.323.382 2.015Zm-5.006 2.63c.328 0 .654-.067.957-.2.304-.131.58-.325.812-.57.233-.243.417-.533.543-.853a2.746 2.746 0 0 0 0-2.015c-.126-.319-.31-.61-.543-.854a2.487 2.487 0 0 0-.812-.57 2.39 2.39 0 0 0-.957-.199c-.663 0-1.299.277-1.769.77a2.707 2.707 0 0 0-.734 1.86 2.7 2.7 0 0 0 .734 1.86 2.44 2.44 0 0 0 1.769.771Zm-2.195 4.919v25.37c0 .283.076.504.226.662.151.19.361.284.631.284s.495-.126.676-.378c.18-.221.346-.553.496-.995.15-.442.285-.789.405-1.042h.225c1.953 1.547 4.266 2.32 6.939 2.32 1.803 0 3.5-.505 5.092-1.515 1.592-1.01 2.854-2.383 3.786-4.12.96-1.767 1.441-3.708 1.441-5.823 0-2.147-.42-4.056-1.261-5.73-.811-1.704-1.938-3.03-3.38-3.977-1.442-.947-3.049-1.42-4.821-1.42-1.082 0-2.178.236-3.29.71-1.081.442-2.057 1.12-2.929 2.036h-.134V17.5a7.22 7.22 0 0 1-4.102-.086Zm13.609 22.007c-1.111 1.737-2.584 2.605-4.415 2.605-.962 0-1.818-.221-2.569-.663-.721-.442-1.307-.963-1.758-1.563-.421-.631-.675-1.2-.765-1.704v-12.5c1.291-1.453 2.883-2.179 4.776-2.179 2.133 0 3.739.884 4.821 2.652 1.081 1.736 1.622 3.835 1.622 6.297 0 2.936-.57 5.288-1.712 7.055ZM12.065.367c.319-.239.7-.367 1.091-.367.392 0 .773.128 1.092.367 8.132 6.104 11.818 13.421 12.05 23.92.108 5.013-.35 9.603-1.748 13.568-1.435 3.968-3.983 7.633-7.736 10.729a1.838 1.838 0 0 1-.797.38c-.29.06-.59.046-.875-.04-1.15-.347-1.345-1.779-1.986-2.671-.64.892-.834 2.323-1.985 2.67a1.79 1.79 0 0 1-.874.04 1.837 1.837 0 0 1-.797-.38c-3.753-3.095-6.302-6.76-7.736-10.728C.368 33.89-.092 29.3.015 24.287.247 13.788 3.933 6.47 12.065.367Zm4.205 43.695c2.348-2.27 3.764-4.745 4.763-7.592 1.259-3.48 1.622-7.326 1.512-12.091-.18-8.187-2.004-13.514-7.527-18.46v14.468c2.16.584 3.129 2.81 3.129 5.26 0 2.452-.97 4.678-3.128 5.262v11.837s1.003.973 1.25 1.316Zm-6.259 0c-2.348-2.27-3.73-4.745-4.73-7.592-1.259-3.48-1.622-7.326-1.511-12.091.18-8.17 1.994-13.52 7.493-18.46v14.468c-2.16.584-3.13 2.81-3.13 5.26 0 2.452.97 4.678 3.13 5.262v11.837s-1.012.985-1.252 1.316Zm3.13-21.045c-.664 0-1.3.276-1.77.77a2.705 2.705 0 0 0-.734 1.86c0 1.454 1.121 2.631 2.503 2.631.664 0 1.3-.276 1.77-.77.469-.493.733-1.162.734-1.86 0-1.453-1.121-2.63-2.504-2.63v-.001Z" clip-rule="evenodd"/></g><defs><clipPath id="a"><path fill="#fff" d="M0 0h190v49H0z"/></clipPath></defs></svg>