<svg xmlns="http://www.w3.org/2000/svg" width="187" height="34" fill="none"><g clip-path="url(#a)"><path fill="#9C9C9C" d="M20.65 32.955a6.417 6.417 0 0 1-3.225-.769 6.666 6.666 0 0 1-2.456-2.29c-1.95 1.878-4.479 2.963-7.126 3.059-4.758 0-7.337-3.464-6.466-8.43.662-3.734 3.624-7.476 4.452-10.48-1.602-1.008-3.982-1.71-5.097.35L0 13.936c.584-2.258 1.995-3.76 4.034-3.76 2.039 0 3.546 1.25 5.49.099h1.55c-.827 4.498-2.919 8.096-4.034 14.394-.68 3.86.584 5.614 2.72 5.614a6.391 6.391 0 0 0 4.076-2.259 18.766 18.766 0 0 1-1.263-6.918c0-5.47 2.43-11.236 6.509-11.236 2.091 0 3.641 1.502 3.641 5.065 0 3.562-2.09 9.077-4.757 12.54a3.631 3.631 0 0 0 1.183 2.113c.62.54 1.404.84 2.216.848 3.886 0 6.604-6.02 6.604-11.588s-2.335-5.317-2.134-7.197c.018-.235.08-.464.182-.674a1.78 1.78 0 0 1 .416-.548c.347-.31.8-.465 1.257-.433 1.212 0 2.805 1.583 2.805 8.007 0 8.186-4.217 14.952-9.846 14.952h.001Zm-.88-20.26c-1.211 0-2.379 4.615-2.527 9.383a21.106 21.106 0 0 0 .053 3.059 24.546 24.546 0 0 0 3.258-10.283c-.009-1.62-.296-2.16-.784-2.16v.001Zm18.707 20.053a3.383 3.383 0 0 1-1.504-.181 3.466 3.466 0 0 1-1.288-.822 3.61 3.61 0 0 1-.829-1.309 3.705 3.705 0 0 1-.213-1.548c0-2.204 2.771-13.189 2.771-14.997 0-.854-.192-1.358-.923-1.358a4.168 4.168 0 0 0-2.188 1.106v-1.556a7.021 7.021 0 0 1 4.618-1.952 3.427 3.427 0 0 1 1.51.2c.483.18.922.465 1.287.838.365.372.647.822.826 1.32.179.496.251 1.027.21 1.555 0 2.204-2.77 13.144-2.77 14.943 0 .855.191 1.359.924 1.359a4.486 4.486 0 0 0 2.187-1.053v1.502a6.926 6.926 0 0 1-4.618 1.953ZM41.875.999c.38-.012.757.06 1.107.214s.663.384.917.675c.255.289.445.633.558 1.008.112.376.144.772.093 1.162a3.494 3.494 0 0 1-1.07 2.158 3.29 3.29 0 0 1-2.18.901c-.379.013-.756-.06-1.106-.214a2.618 2.618 0 0 1-.918-.675 2.692 2.692 0 0 1-.558-1.008 2.784 2.784 0 0 1-.093-1.162c.094-.832.474-1.6 1.07-2.158a3.29 3.29 0 0 1 2.18-.9V.999ZM52.66 28.034c-.243 1.358-.095 2.303.829 2.303a4.297 4.297 0 0 0 2.186-1.053l.087 1.511a7.02 7.02 0 0 1-4.617 1.953c-3.015 0-4.182-2.258-3.738-5.065l2.963-17.408c.984-5.812.644-6.577-2.371-6.577l.192-1.403 9.087-1.242-4.618 26.98v.001Zm25.556-.046c-.244 1.359-.148 2.358.828 2.358a4.552 4.552 0 0 0 2.187-1.107v1.556a6.858 6.858 0 0 1-4.617 1.953 3.411 3.411 0 0 1-2.415-.766 3.623 3.623 0 0 1-1.28-2.248 8.002 8.002 0 0 1-2.745 2.371 7.736 7.736 0 0 1-3.476.886c-5.777 0-8.208-5.263-7.093-11.588 1.116-6.324 6.316-11.488 12.198-11.488a7.973 7.973 0 0 1 4 .98l.148-.8c1.15-6.19.619-6.397-2.396-6.397l.148-1.403 9.13-1.242-4.617 26.936v-.001Zm-6.265-15.806c-3.355 0-5.584 4.111-6.465 9.176-.923 5.317-.34 8.997 2.815 8.997 2.134 0 4.565-2.7 5.297-6.82L75.394 13.1a6.011 6.011 0 0 0-3.442-.918ZM93.57 32.999c-6.753 0-8.6-5.02-7.772-9.833l2.204-12.891c1.02-5.82.68-6.622-2.335-6.622l.19-1.403 9.115-1.197-1.847 10.931a8.005 8.005 0 0 1 5.098-2.06c5.881 0 8.643 5.164 7.58 11.488C104.74 27.737 99.329 33 93.57 33v-.001Zm3.154-20.691a4.56 4.56 0 0 0-2.715.974 4.808 4.808 0 0 0-1.641 2.435l-1.36 8.097c-.828 4.813.828 6.774 2.92 6.774 3.057 0 4.957-3.508 5.976-9.275.906-5.164.079-8.978-3.189-8.978l.009-.027Zm18.289 12.019c0 3.86 1.794 5.92 5.227 5.92 1.743 0 4.278-1.25 5.882-2.906l.679 1.601a12.563 12.563 0 0 1-4.071 2.968 12.217 12.217 0 0 1-4.868 1.098c-5.097 0-8.548-3.913-8.548-9.23 0-7.872 6.317-13.845 12.391-13.845 3.694 0 5.776 2.105 5.776 4.561-.043 3.814-3.546 8.097-12.468 9.833Zm6.264-12.091c-2.771 0-5.436 4.165-6.169 10.13 5.585-1.404 7.964-5.317 8.016-7.827-.008-1.403-.645-2.303-1.855-2.303h.008Zm26.027 20.512a3.412 3.412 0 0 1-2.415-.766 3.62 3.62 0 0 1-1.28-2.248 7.73 7.73 0 0 1-2.677 2.373 7.462 7.462 0 0 1-3.422.883c-5.681 0-8.112-5.262-6.971-11.587 1.141-6.324 6.256-11.48 12.155-11.48a8.938 8.938 0 0 1 3.642.757h5.541l-2.971 17.308c-.244 1.359-.148 2.358.829 2.358a4.554 4.554 0 0 0 2.186-1.107v1.556a6.857 6.857 0 0 1-4.617 1.953Zm-4.47-20.566c-3.26 0-5.542 4.111-6.414 9.176-.923 5.317-.287 8.997 2.615 8.997 2.23 0 4.617-2.807 5.298-6.82l1.794-10.435a5.496 5.496 0 0 0-3.285-.918h-.008Zm26.043 3.661c-1.315 0-1.656-1.052-2.039-2.159a2.471 2.471 0 0 0-.886-1.396 2.338 2.338 0 0 0-1.545-.493 2.83 2.83 0 0 0-1.987.674 3.012 3.012 0 0 0-1.028 1.881c-.147 1.359.828 2.51 2.675 4.165l2.475 2.105a6.543 6.543 0 0 1 2.064 2.8 6.75 6.75 0 0 1 .367 3.498c-.628 3.76-3.642 6.072-7.677 6.072-4.862 0-7.964-2.96-7.624-4.966.079-.527.337-1.01.728-1.358a2.14 2.14 0 0 1 1.407-.549c1.263 0 1.742.999 2.135 2.303a3.58 3.58 0 0 0 1.376 1.828 3.402 3.402 0 0 0 2.17.583 2.983 2.983 0 0 0 2.084-.718 3.167 3.167 0 0 0 1.07-1.98c.192-1.8-.871-2.906-2.866-4.769l-2.431-2.204a6.273 6.273 0 0 1-1.935-2.607 6.496 6.496 0 0 1-.401-3.258c.436-2.411 2.615-5.398 7.624-5.398 3.886 0 6.317 2.258 6.1 4.066a2.002 2.002 0 0 1-.573 1.315c-.343.348-.802.55-1.283.565Zm17.783-3.148h-4.714l-2.282 13.332c-.488 2.762-.096 4.013 1.359 4.013.775 0 1.995-.45 3.738-2.303l.095 1.952a8.512 8.512 0 0 1-2.876 2.28 8.264 8.264 0 0 1-3.536.832c-3.302 0-4.958-2.41-4.173-6.873l2.282-13.233h-3.686l.288-2.06h3.72l.976-5.965h5.438l-1.02 5.964h4.714l-.323 2.06v.001Z"/></g><defs><clipPath id="a"><path fill="#fff" d="M0 0h187v34H0z"/></clipPath></defs></svg>